<svg width="168" height="24" viewBox="0 0 168 24" fill="none" xmlns="http://www.w3.org/2000/svg">
<path d="M7.21685 20.3931C7.21685 22.3699 5.58612 24 3.60843 24C1.63073 24 0 22.3699 0 20.3931C0 18.4162 1.63073 16.7861 3.60843 16.7861C5.58612 16.7861 7.21685 18.4162 7.21685 20.3931Z" fill="#075EF2"/>
<path d="M15.6134 12C15.6134 13.9769 13.9826 15.6069 12.005 15.6069C10.0273 15.6069 8.39653 13.9769 8.39653 12C8.39653 10.0231 10.0273 8.39306 12.005 8.39306C13.9826 8.39306 15.6134 10.0231 15.6134 12Z" fill="#075EF2"/>
<path d="M15.6134 20.3931C15.6134 22.3699 13.9826 24 12.005 24C10.0273 24 8.39653 22.3699 8.39653 20.3931C8.39653 18.4162 10.0273 16.7861 12.005 16.7861C13.9826 16.7861 15.6134 18.4162 15.6134 20.3931Z" fill="#075EF2"/>
<path d="M24.0099 12C24.0099 13.9769 22.3792 15.6069 20.4015 15.6069C18.4238 15.6069 16.7931 13.9769 16.7931 12C16.7931 10.0231 18.4238 8.39306 20.4015 8.39306C22.3792 8.39306 24.0099 10.0231 24.0099 12Z" fill="#075EF2"/>
<path d="M24.0099 20.3931C24.0099 22.3699 22.3792 24 20.4015 24C18.4238 24 16.7931 22.3699 16.7931 20.3931C16.7931 18.4162 18.4238 16.7861 20.4015 16.7861C22.3792 16.7861 24.0099 18.4162 24.0099 20.3931Z" fill="#075EF2"/>
<path d="M24.0099 3.60694C24.0099 5.58381 22.3792 7.21388 20.4015 7.21388C18.4238 7.21388 16.7931 5.58381 16.7931 3.60694C16.7931 1.63007 18.4238 0 20.4015 0C22.3792 0 24.0099 1.63007 24.0099 3.60694Z" fill="#075EF2"/>
<path d="M141.891 21.7838H145.5V13.1827C145.5 9.09019 147.165 7.14798 149.698 7.14798C152.092 7.14798 153.133 8.70868 153.133 11.6913V21.7838H156.742V13.1827C156.742 9.09019 158.372 7.14798 160.94 7.14798C163.195 7.14798 164.375 8.70868 164.375 11.6913V21.7838H167.983V10.8243C167.983 6.59309 165.693 4.02661 161.773 4.02661C158.685 4.02661 156.846 5.58731 155.839 7.73758H155.701C155.007 5.41388 153.445 4.02661 150.704 4.02661C148.484 4.02661 146.541 4.96302 145.465 7.00926H145.292L144.598 4.44279H141.891V21.7838ZM129.54 22.2C131.691 22.2 133.599 21.2983 134.744 19.2174H134.883L135.577 21.7838H138.283V4.44279H134.675V13.7029C134.675 16.9977 133.148 19.0786 130.511 19.0786C128.152 19.0786 127.111 17.3098 127.111 13.7376V4.44279H123.502V14.5006C123.502 19.5989 125.272 22.2 129.54 22.2ZM86.7242 21.7838H90.3326V4.44279H86.7242V21.7838ZM68.0575 21.7838H71.666V12.8705C71.666 9.22891 73.3314 7.14798 75.9683 7.14798C78.2236 7.14798 79.5767 8.63933 79.5767 11.8648V21.7838H83.1852V12.0728C83.1852 7.66821 81.7626 4.02661 77.0092 4.02661C74.6846 4.02661 72.7416 4.89365 71.5966 7.00926H71.4578L70.7639 4.44279H68.0575V21.7838ZM60.8407 21.7838H64.4491V4.44279H60.8407V21.7838ZM31.21 21.7838H34.8184V13.1827C34.8184 9.09019 36.4838 7.14798 39.0166 7.14798C41.4107 7.14798 42.4516 8.70868 42.4516 11.6913V21.7838H46.06V13.1827C46.06 9.09019 47.6908 7.14798 50.2583 7.14798C52.5136 7.14798 53.6932 8.70868 53.6932 11.6913V21.7838H57.3017V10.8243C57.3017 6.59309 55.0117 4.02661 51.091 4.02661C48.003 4.02661 46.1641 5.58731 45.1579 7.73758H45.0191C44.3252 5.41388 42.7639 4.02661 40.0228 4.02661C37.8023 4.02661 35.8593 4.96302 34.7837 7.00926H34.6102L33.9163 4.44279H31.21V21.7838ZM93.9411 21.7838H97.5495V13.1827C97.5495 9.09019 99.2149 7.14798 101.748 7.14798C104.142 7.14798 105.183 8.70868 105.183 11.6913V21.7838H108.791V13.1827C108.791 9.09019 110.422 7.14798 112.989 7.14798C115.245 7.14798 116.424 8.70868 116.424 11.6913V21.7838H120.033V10.8243C120.033 6.59309 117.743 4.02661 113.822 4.02661C110.734 4.02661 108.895 5.58731 107.889 7.73758H107.75C107.056 5.41388 105.495 4.02661 102.754 4.02661C100.533 4.02661 98.5904 4.96302 97.5148 7.00926H97.3413L96.6474 4.44279H93.9411V21.7838Z" fill="#020203"/>
</svg>
